<svg width="24" height="24" fill="none" xmlns="http://www.w3.org/2000/svg"><g clip-path="url('#clip0_6_666')"><g clip-path="url('#clip1_6_666')" fill="#999FAA"><path d="M5.643 18.53C2.041 15.025 1.966 9.24 5.47 5.639c3.505-3.598 9.289-3.673 12.887-.169 3.599 3.508 3.677 9.289.173 12.887a9.085 9.085 0 0 1-6.53 2.75 9.078 9.078 0 0 1-6.357-2.577ZM3.398 3.622c-4.614 4.748-4.516 12.361.228 16.98 4.744 4.618 12.357 4.516 16.98-.228 4.614-4.74 4.516-12.357-.228-16.976A11.977 11.977 0 0 0 12 0a11.953 11.953 0 0 0-8.602 3.622Z"/><path d="m14.586 12.361 1.189 1.189-6.35 6.35c.844.274 1.75.423 2.689.411.125 0 .25-.008.376-.015l5.011-5.015 1.182 1.18-.012-4.1h-4.085Zm-1.24-5.784 1.189 1.189L5.34 16.96a8.264 8.264 0 0 0 1.734 1.727l9.19-9.19 1.181 1.18-.015-4.1h-4.085ZM7.534 5.313l1.19 1.19-5.016 5.014c-.012.197-.02.397-.016.593.012.863.157 1.691.412 2.472l6.35-6.353 1.18 1.181-.015-4.1-4.085.003Z"/></g></g><defs><clipPath id="clip0_6_666"><rect width="24" height="24" rx="4" fill="#fff"/></clipPath><clipPath id="clip1_6_666"><path fill="#fff" d="M0 0h24v24H0z"/></clipPath></defs></svg>