<svg width="24" height="24" fill="none" xmlns="http://www.w3.org/2000/svg"><g clip-path="url('#clip0_6_604')"><path d="M0 24V0h24v24H0Zm5.87-8.66c0 .383-.02.473-.22.706l-1.673 2.057v.274h4.78v-.274l-1.694-2.057c-.199-.233-.233-.343-.233-.707V9.202l4.203 9.161h.487l3.607-9.16v7.295c0 .206 0 .24-.13.364l-1.269 1.234v.274h6.309v-.274l-1.255-1.234c-.124-.124-.137-.165-.137-.364V7.502c0-.206.013-.24.137-.364l1.248-1.234V5.63h-4.437l-3.168 7.92L8.86 5.637H4.197v.274L5.67 7.714c.164.206.199.254.199.528v7.097Z" fill="#999FAA"/></g><defs><clipPath id="clip0_6_604"><rect width="24" height="24" rx="4" fill="#fff"/></clipPath></defs></svg>