<svg width="24" height="24" fill="none" xmlns="http://www.w3.org/2000/svg"><g clip-path="url('#clip0_6_615')"><g clip-path="url('#clip1_6_615')"><path d="M17.837.02c.63.057 1.613.374 2.355 1.028.779.765.964 1.941.686 2.987-.241.952-.52 1.437-1.483 2.09-.965.654-2.133.617-2.133.617v4.088l1.984 1.606-1.984 1.605v5.583s1.984-1.158 3.208-3.697c0 0 .056-.15.167-.41.111.69.037 2.09-.723 3.864-.575 1.344-1.632 2.65-2.967 3.379-2.356 1.307-4.117 1.438-5.99 1.045-2.207-.466-4.229-1.698-5.601-3.883-.964-1.53-1.39-3.323-1.354-5.246.074-3.771 2.875-7.02 6.083-8.252.39-.149.556-.242 1.113-.298-.26.168-.557.392-.909.634-1.039.691-1.929 2.054-2.3 3.1l6.25-2.8v8.792l-5.044 2.54c.575.802 2.318 2.016 3.82 2.184 2.522.28 4.024-.84 4.024-.84V14.04l-1.965-1.605 1.965-1.606V6.742c-1.075-.131-2.373-.486-3.134-.672-1.112-.28-4.859-1.326-5.452-1.42-.593-.093-1.317-.055-1.743.337-.445.392-.705 1.101-.52 1.736.112.355.353.56.538.766 0 0-.222-.02-.612-.262-.704-.43-1.242-1.27-1.298-2.296-.074-1.344.464-2.558 1.577-3.38.964-.615 2.04-1.008 3.3-.84 1.836.262 4.322 1.326 6.528 1.849.853.205 1.521.28 2.114-.075.279-.205.78-.728.371-1.419-.463-.803-1.372-.784-2.132-.933.63-.15.779-.15 1.26-.112ZM10.4 17.515V9.019l-2.54 1.14s-.65 1.455-.538 3.584c.092 1.643 1.001 3.622 1.706 4.462l1.372-.691Z" fill="#999FAA"/></g></g><defs><clipPath id="clip0_6_615"><rect width="24" height="24" rx="4" fill="#fff"/></clipPath><clipPath id="clip1_6_615"><path fill="#fff" d="M0 0h24v24H0z"/></clipPath></defs></svg>