<svg width="1136" height="482" fill="none" xmlns="http://www.w3.org/2000/svg"><path d="M0 0h1136v462c0 11.046-8.95 20-20 20H20c-11.046 0-20-8.954-20-20V0Z" fill="#fff"/><path fill-rule="evenodd" clip-rule="evenodd" d="M584.084 263.923c12.659-8.881 15.721-26.343 6.84-39.002-8.882-12.659-26.344-15.721-39.003-6.84-12.659 8.882-15.721 26.344-6.84 39.003 8.882 12.659 26.344 15.721 39.003 6.839Zm-6.892-9.823c7.234-5.075 8.983-15.054 3.908-22.287-5.075-7.234-15.053-8.984-22.287-3.908-7.234 5.075-8.984 15.053-3.908 22.287 5.075 7.234 15.053 8.983 22.287 3.908Z" fill="url('#paint0_angular_10_338')"/><defs><radialGradient id="paint0_angular_10_338" cx="0" cy="0" r="1" gradientUnits="userSpaceOnUse" gradientTransform="rotate(54.946 52.253 666.692) scale(28)"><stop stop-color="#999FAA"/><stop offset="1" stop-color="#E8EAEE" stop-opacity="0"/></radialGradient></defs></svg>